<svg xmlns="http://www.w3.org/2000/svg" id="svg8" viewBox="0 0 48 48" height="72" width="72" preserveAspectRatio="xMidYMid"><defs id="defs4"><style id="style2">.cls-1 { fill: #1b1b1b; fill-rule: evenodd; }</style><style id="style2-8">.cls-1 { fill: #1b1b1b; fill-rule: evenodd; }</style></defs><path id="path6" class="cls-1" d="M45.386 25.945H7.306l8.346 8.346c.76.762.76 1.99 0 2.75-.38.38-.877.57-1.375.57-.497 0-.995-.19-1.374-.57L1.237 25.376c-.18-.18-.32-.393-.42-.632-.196-.474-.196-1.01 0-1.485.1-.24.24-.453.42-.632L12.903 10.96c.76-.76 1.99-.76 2.75 0s.76 1.99 0 2.75l-8.348 8.346h38.08c1.074 0 1.945.87 1.945 1.944 0 1.073-.87 1.945-1.944 1.945z" fill="#1c1c1c" fill-rule="evenodd" stroke-width="1.944" fill-opacity=".502"/></svg>