<svg xmlns="http://www.w3.org/2000/svg" preserveAspectRatio="xMidYMid" width="72" height="72" viewBox="0 0 48 48" id="svg8"><defs id="defs4"><style id="style2">.cls-1 { fill: #1b1b1b; fill-rule: evenodd; }</style></defs><path d="M2.614 22.055h38.08L32.35 13.71c-.76-.762-.76-1.99 0-2.75.38-.38.877-.57 1.375-.57.497 0 .995.19 1.374.57l11.666 11.665c.18.18.32.393.42.632.196.474.196 1.01 0 1.485-.1.24-.24.453-.42.632L35.097 37.04c-.76.76-1.99.76-2.75 0s-.76-1.99 0-2.75l8.348-8.346H2.615C1.54 25.944.67 25.074.67 24c0-1.073.87-1.945 1.944-1.945z" class="cls-1" id="path6" fill="#1b1b1b" fill-rule="evenodd" stroke-width="1.944" opacity=".5"/></svg>